<svg width="30" height="30" viewBox="0 0 30 30" xmlns="http://www.w3.org/2000/svg">
    <rect x="0" y="0" width="30" height="30" fill="white" />

    <polygon points="13.12,10.45 11.98,12.78 14.92,12.29" fill="black" />
    <polygon points="25.33,19.09 23.93,20.81 25.78,22.25" fill="black" />
    <polygon points="5.04,8.17 3.88,10.36 5.78,10.97" fill="black" />
    <polygon points="8.97,22.12 7.36,23.09 9.48,23.83" fill="black" />
    <polygon points="19.88,6.45 18.35,8.09 20.78,8.93" fill="black" />
    <polygon points="12.43,15.87 11.06,17.23 13.17,17.68" fill="black" />
    <polygon points="23.23,11.33 22.09,13.11 24.03,13.56" fill="black" />
    <polygon points="17.45,26.56 15.89,27.93 17.87,28.34" fill="black" />
    <polygon points="27.89,14.12 26.36,15.78 28.24,16.59" fill="black" />
</svg>